<svg width="195" height="51" viewBox="0 0 195 51" fill="none" xmlns="http://www.w3.org/2000/svg">
<g clip-path="url(#clip0_44_1209)">
<path d="M35.4527 30.6H32.5743C31.4373 30.6 30.388 29.6803 30.388 28.3985V25.523C30.388 25.5162 30.388 25.5085 30.388 25.5C30.388 22.6831 28.1207 20.4 25.3234 20.4H12.3164C11.1794 20.4 10.1302 19.4803 10.1302 18.1977V12.4024C10.1302 11.1291 11.1592 10.1992 12.3173 10.1992H25.3242C28.1216 10.1992 30.3889 7.91605 30.3889 5.09915C30.3889 2.28225 28.1207 0 25.3234 0H15.194C12.3966 0 10.1293 2.2831 10.1293 5.1C10.1293 5.10765 10.1293 5.1153 10.1293 5.12295V7.99765C10.1293 9.27945 9.07927 10.2 7.94225 10.2H5.06467C2.26728 10.2 0 12.4831 0 15.3C0 18.1169 2.26728 20.4 5.06467 20.4H7.9414C9.09953 20.4 10.1285 21.3291 10.1285 22.6024V25.4771C10.1285 25.4839 10.1285 25.4915 10.1285 25.4992C10.1285 28.3161 12.3958 30.5992 15.1932 30.5992H28.2001C29.3582 30.5992 30.3872 31.5282 30.3872 32.8015V38.5968C30.3872 39.8786 29.3371 40.7992 28.2001 40.7992H15.194C12.3966 40.7992 10.1293 43.0823 10.1293 45.8992C10.1293 48.7161 12.3966 50.9992 15.194 50.9992H25.3234C28.1207 50.9992 30.388 48.7161 30.388 45.8992C30.388 45.8915 30.388 45.8839 30.388 45.8762V43.0015C30.388 41.7282 31.417 40.7992 32.5751 40.7992H35.4527C38.2501 40.7992 40.5174 38.5161 40.5174 35.6992C40.5174 32.8823 38.2501 30.5992 35.4527 30.5992" fill="black"/>
<path d="M40.5174 15.3C40.5174 18.1169 38.2501 20.4 35.4527 20.4C32.6553 20.4 30.388 18.1169 30.388 15.3C30.388 12.4831 32.6553 10.2 35.4527 10.2C38.2501 10.2 40.5174 12.4831 40.5174 15.3Z" fill="black"/>
<path d="M10.1293 35.7C10.1293 38.5169 7.86206 40.8 5.06467 40.8C2.26728 40.8 0 38.5169 0 35.7C0 32.8831 2.26728 30.6 5.06467 30.6C7.86206 30.6 10.1293 32.8831 10.1293 35.7Z" fill="black"/>
<path d="M79.674 18.0676C79.674 16.8802 80.3966 16.1517 81.6526 16.1517H88.387C90.5555 16.1517 92.0014 17.5695 92.0014 19.4463C92.0014 21.3231 90.5555 22.7409 88.387 22.7409H81.6526C80.3974 22.7409 79.674 22.0133 79.674 20.8259V18.0676ZM79.674 38.8714V28.7955C79.674 27.5689 80.3966 26.8796 81.6526 26.8796H88.7297C93.7141 26.8796 97.1379 23.4702 97.1379 19.4472C97.1379 15.4241 93.7133 12.053 88.7297 12.053H74.5764V38.8714H79.6749H79.674Z" fill="black"/>
<path d="M115.874 38.8714V34.7718H107.542C105.982 34.7718 105.144 33.9677 105.144 32.3969V12.0522H100.046V38.8714H115.874Z" fill="black"/>
<path d="M134.507 12.0522H129.294L118.527 38.8714H123.815L126.478 31.9371C126.935 30.7114 127.734 30.175 128.99 30.175H134.811C136.028 30.175 136.827 30.7114 137.284 31.9371L139.947 38.8714H145.273L134.506 12.0522H134.507ZM133.86 26.2276H129.904C129.104 26.2276 128.763 25.7295 129.066 24.9254L131.121 19.6384C131.464 18.6422 132.3 18.6422 132.681 19.6384L134.697 24.9254C135.04 25.7295 134.659 26.2276 133.86 26.2276Z" fill="black"/>
<path d="M176.928 38.8714V28.9102C176.928 27.6837 177.879 26.7648 179.096 26.7648H187.695C188.95 26.7648 189.864 27.6837 189.864 28.9102V38.8714H195V12.0522H189.864V20.519C189.864 21.7456 188.95 22.6644 187.695 22.6644H179.096C177.879 22.6644 176.928 21.7447 176.928 20.519V12.0522H171.829V38.8714H176.928Z" fill="black"/>
<path d="M71.2642 31.7186C71.2642 25.0155 65.7234 23.7371 60.76 23.1557C57.4891 22.7681 53.9877 22.3032 53.9877 19.0876C53.9877 17.1505 55.681 15.7947 57.7584 15.7947H60.4511C63.9913 15.7947 65.7994 16.9958 66.1843 19.437H71.4558C71.0709 13.974 66.1463 11.6493 60.4519 11.6493H57.9508C52.5257 11.6493 48.8707 15.3689 48.8707 19.2432C48.8707 24.8226 53.5268 26.9926 59.3748 27.5349C62.6069 27.8443 66.0695 28.4257 66.0695 31.7195C66.0695 33.5019 64.415 35.2062 62.1832 35.2062H59.1436C55.8735 35.2062 53.9109 33.4628 53.6416 31.6804V31.6413H48.3322V31.6804C48.6783 36.601 53.1799 39.3516 58.5282 39.3516H62.222C68.1089 39.3516 71.2642 35.2835 71.2642 31.7186Z" fill="black"/>
<path d="M168.519 31.7186C168.519 25.0155 162.978 23.7371 158.014 23.1557C154.744 22.7681 151.243 22.3032 151.243 19.0876C151.243 17.1505 152.936 15.7947 155.014 15.7947H157.706C161.246 15.7947 163.055 16.9958 163.439 19.437H168.711C168.326 13.974 163.401 11.6493 157.706 11.6493H155.205C149.78 11.6493 146.124 15.3689 146.124 19.2432C146.124 24.8226 150.78 26.9926 156.628 27.5349C159.86 27.8443 163.323 28.4257 163.323 31.7195C163.323 33.5019 161.669 35.2062 159.437 35.2062H156.397C153.127 35.2062 151.164 33.4628 150.895 31.6804V31.6413H145.586V31.6804C145.932 36.601 150.433 39.3516 155.782 39.3516H159.476C165.362 39.3516 168.518 35.2835 168.518 31.7186" fill="black"/>
</g>
<defs>
<clipPath id="clip0_44_1209">
<rect width="195" height="51" fill="white"/>
</clipPath>
</defs>
</svg>
