<svg width="256" height="352" viewBox="0 0 256 352" fill="none" xmlns="http://www.w3.org/2000/svg">
<path d="M34.3068 246.4C56.3071 246.4 73.4948 225.28 67.5135 201.766C64.4884 189.798 55.2758 180.365 43.5882 177.267C20.6255 171.142 0.000229299 188.742 0.000229299 211.27C-0.0685214 230.63 15.3317 246.4 34.3068 246.4Z" fill="#E4FF45"/>
<path d="M137.434 351.999H103.058C84.0833 351.999 68.6831 336.229 68.6831 316.799V281.599C68.6831 262.169 84.0833 246.399 103.058 246.399H137.434C156.409 246.399 171.809 262.169 171.809 281.599V316.799C171.809 336.229 156.478 351.999 137.434 351.999Z" fill="#E4FF45"/>
<path d="M446.809 0.000244141H206.182C187.207 0.000244141 171.807 15.7698 171.807 35.2001V211.199C171.807 230.63 187.207 246.399 206.182 246.399H446.809C465.785 246.399 481.185 230.63 481.185 211.199V35.2001C481.185 15.7698 465.853 0.000244141 446.809 0.000244141Z" fill="#E4FF45"/>
<path d="M171.808 261.606V246.4H156.89H137.433L171.808 281.6V261.606Z" fill="#E4FF45"/>
<path d="M171.808 231.193V246.4H186.796H206.183L171.808 211.2V231.193Z" fill="#E4FF45"/>
<path d="M188.995 246.4H171.808V264C171.808 254.285 179.508 246.4 188.995 246.4Z" fill="#E4FF45"/>
<path d="M154.621 246.4H171.808V228.8C171.808 238.515 164.108 246.4 154.621 246.4Z" fill="#E4FF45"/>
<path d="M68.7515 261.606V246.4H83.6704H103.127L68.7515 281.599V261.606Z" fill="#E4FF45"/>
<path d="M68.7494 231.193V246.4H53.8305H34.374L68.7494 211.2V231.193Z" fill="#E4FF45"/>
<path d="M51.5625 246.4H68.7502V263.999C68.7502 254.284 61.0501 246.4 51.5625 246.4Z" fill="#E4FF45"/>
<path d="M85.9387 246.4H68.751V228.8C68.751 238.515 76.4511 246.4 85.9387 246.4Z" fill="#E4FF45"/>
</svg>
